#!OML:ASF X:\für Bonn\!DataBase\2005_08_10_Bjorn_Final\c3d\bjorn.ASF
:FULLY-SPECIFIED
:DEGREES
114
root 0.496858 12.981 3.60548 -168.632 -3.75098 -182.699
lowerback 26.5685 0.57212 7.65918
upperback 10.8854 0.0311881 1.38676
thorax -2.40272 -0.858959 -2.82447
lowerneck -18.7677 1.28163 3.50553
upperneck -8.46222 -0.633983 -5.31205
head 0.429837 -1.22055 -2.38225
rclavicle 9.54166e-015 1.90833e-014
rhumerus 73.2324 -2.13926 -69.0994
rradius 12.5737
rwrist 39.0971
rhand -14.8966 9.35019
rfingers 7.12502
rthumb 11.2644 -20.3274
lclavicle 9.54166e-015 1.90833e-014
lhumerus 77.7486 -9.12372 77.5117
lradius 8.76724
lwrist -51.447
lhand -26.1273 -7.78997
lfingers 7.12502
lthumb 0.422781 22.1894
rfemur 103.477 -161.876 -165.918
rtibia 116.155
rfoot -34.8159 14.152
rtoes -36.9638
lfemur -79.0682 4.41135 -22.8681
ltibia 118.276
lfoot -24.8176 -1.9886
ltoes -34.0413
115
root 0.494329 13.2279 3.59444 -168.21 -3.83995 -182.851
lowerback 26.0619 0.546589 7.66734
upperback 10.827 0.0151442 1.37235
thorax -2.23187 -0.838163 -2.84412
lowerneck -18.6319 1.29978 3.36532
upperneck -8.36792 -0.543108 -5.21171
head 0.442008 -1.15441 -2.3159
rclavicle 4.77083e-015 -6.36111e-015
rhumerus 73.3808 -2.07958 -68.8689
rradius 12.5154
rwrist 38.7265
rhand -14.9907 9.40155
rfingers 7.12502
rthumb 11.1737 -20.2809
lclavicle 4.77083e-015 -6.36111e-015
lhumerus 77.7393 -9.00209 77.7811
lradius 8.79919
lwrist -51.8569
lhand -26.0701 -7.66677
lfingers 7.12502
lthumb 0.478033 22.3124
rfemur 104.651 -162.941 -166.088
rtibia 113.95
rfoot -34.6705 13.3175
rtoes -36.7082
lfemur -78.0069 3.79336 -22.9247
ltibia 116.08
lfoot -24.4087 -1.89703
ltoes -33.4047
116
root 0.491856 13.4743 3.57946 -167.81 -3.92106 -182.986
lowerback 25.4912 0.526881 7.65724
upperback 10.7815 -0.00567584 1.38122
thorax -2.01582 -0.820044 -2.82741
lowerneck -18.5055 1.32306 3.20412
upperneck -8.25454 -0.441644 -5.13573
head 0.462331 -1.08319 -2.25394
rclavicle 5.64548e-014 4.77083e-014
rhumerus 73.5256 -1.95072 -68.5227
rradius 12.5082
rwrist 38.1052
rhand -15.0832 9.47083
rfingers 7.12502
rthumb 11.0845 -20.2165
lclavicle 5.64548e-014 4.77083e-014
lhumerus 77.678 -8.82937 78.0699
lradius 8.86182
lwrist -52.3573
lhand -25.9327 -7.62319
lfingers 7.12502
lthumb 0.610746 22.3557
rfemur 105.856 -163.927 -166.232
rtibia 111.713
rfoot -34.5432 12.4226
rtoes -36.7008
lfemur -76.8743 3.27765 -22.9644
ltibia 113.838
lfoot -24.0595 -1.92621
ltoes -32.5674
117
root 0.490708 13.7256 3.55854 -167.454 -4.0183 -183.139
lowerback 24.9243 0.513023 7.66082
upperback 10.7385 -0.0166263 1.37126
thorax -1.7954 -0.796052 -2.84158
lowerneck -18.5177 1.33083 3.10622
upperneck -8.03563 -0.37206 -5.12444
head 0.539811 -1.03219 -2.23066
rclavicle 4.77083e-015 -7.95139e-016
rhumerus 73.6398 -1.86583 -68.1533
rradius 12.5193
rwrist 37.3788
rhand -15.1254 9.54207
rfingers 7.12502
rthumb 11.0438 -20.1474
lclavicle 4.77083e-015 -7.95139e-016
lhumerus 77.6063 -8.76451 78.351
lradius 8.92694
lwrist -52.92
lhand -25.7 -7.58582
lfingers 7.12502
lthumb 0.835513 22.3923
rfemur 107.162 -164.812 -166.413
rtibia 109.413
rfoot -34.4096 11.6551
rtoes -36.5037
lfemur -75.6025 2.80393 -23.0164
ltibia 111.529
lfoot -23.7849 -1.96339
ltoes -31.6683
118
root 0.488938 13.9821 3.53336 -167.129 -4.12084 -183.273
lowerback 24.3539 0.480531 7.67727
upperback 10.687 -0.0482341 1.36224
thorax -1.5827 -0.782173 -2.85673
lowerneck -18.6278 1.33659 3.03591
upperneck -7.70602 -0.304395 -5.16279
head 0.671014 -0.983628 -2.23196
rclavicle -7.95139e-016 -9.54166e-015
rhumerus 73.7245 -1.73233 -67.8295
rradius 12.6011
rwrist 36.7227
rhand -15.1053 9.54771
rfingers 7.12502
rthumb 11.0632 -20.1407
lclavicle -7.95139e-016 -9.54166e-015
lhumerus 77.5033 -8.66102 78.6206
lradius 8.95125
lwrist -53.5139
lhand -25.4355 -7.56031
lfingers 7.12502
lthumb 1.09092 22.4166
rfemur 108.548 -165.632 -166.566
rtibia 107.036
rfoot -34.283 10.8455
rtoes -36.4833
lfemur -74.2445 2.38933 -23.0602
ltibia 109.141
lfoot -23.5531 -2.00133
ltoes -30.9072
119
root 0.487836 14.242 3.5022 -166.859 -4.2239 -183.385
lowerback 23.7788 0.467878 7.72487
upperback 10.6509 -0.0540525 1.3588
thorax -1.34498 -0.755518 -2.89008
lowerneck -18.8283 1.3265 2.98309
upperneck -7.32174 -0.261188 -5.20727
head 0.8351 -0.949622 -2.24208
rclavicle 2.14687e-014 3.10104e-014
rhumerus 73.8128 -1.65762 -67.4777
rradius 12.6546
rwrist 36.0724
rhand -15.0557 9.54468
rfingers 7.12502
rthumb 11.111 -20.1412
lclavicle 2.14687e-014 3.10104e-014
lhumerus 77.4195 -8.6402 78.9056
lradius 8.93767
lwrist -54.125
lhand -25.1585 -7.5753
lfingers 7.12502
lthumb 1.35853 22.4001
rfemur 110.061 -166.407 -166.705
rtibia 104.58
rfoot -34.1136 10.1246
rtoes -36.2557
lfemur -72.7943 2.05137 -23.0872
ltibia 106.699
lfoot -23.3476 -2.01716
ltoes -30.3026
120
root 0.487494 14.5044 3.46495 -166.636 -4.33273 -183.481
lowerback 23.1814 0.448318 7.77466
upperback 10.6282 -0.0761358 1.36103
thorax -1.08124 -0.737428 -2.91489
lowerneck -19.0905 1.31942 2.9279
upperneck -6.86274 -0.207996 -5.28007
head 1.03625 -0.911416 -2.26274
rclavicle -3.33958e-014 -6.52014e-014
rhumerus 73.8704 -1.58067 -67.3316
rradius 12.7818
rwrist 35.7216
rhand -14.9258 9.51178
rfingers 7.12502
rthumb 11.2363 -20.1673
lclavicle -3.33958e-014 -6.52014e-014
lhumerus 77.3197 -8.60369 79.1837
lradius 8.9163
lwrist -54.7576
lhand -24.9396 -7.52876
lfingers 7.12502
lthumb 1.56993 22.4452
rfemur 111.673 -167.121 -166.83
rtibia 102.058
rfoot -33.9428 9.46201
rtoes -36.0502
lfemur -71.2404 1.76252 -23.0986
ltibia 104.187
lfoot -23.1501 -2.01578
ltoes -29.9162
